# xmcd CD database file
#
# Track frame offsets:
#	150
#	41248
#	67100
#	85433
#	91060
#	105145
#	149388
#	163083
#	172053
#	188343
#	201080
#	224410
#	247250
#
# Disc length: 3590 seconds
#
# Revision: 2
# Processed by: cddbd v1.5.2PL0 Copyright (c) Steve Scherf et al.
# Submitted via: CDex 1.70beta2
#
DISCID=bc0e040d
DTITLE=リヒター/ミュンヘン・バッハ管弦楽団 - バッハ 管弦楽組曲
DYEAR=1961
DGENRE=Classical
TTITLE0=第3番 ニ長調 BWV1068 序曲
TTITLE1=第3番 ニ長調 BWV1068 エア
TTITLE2=第3番 ニ長調 BWV1068 ガヴォット I/II
TTITLE3=第3番 ニ長調 BWV1068 ブーレー
TTITLE4=第3番 ニ長調 BWV1068 ジーグ
TTITLE5=第4番 ニ長調 BWV1069 序曲
TTITLE6=第4番 ニ長調 BWV1069 ブーレー I/II
TTITLE7=第4番 ニ長調 BWV1069 ガヴォット I/II
TTITLE8=第4番 ニ長調 BWV1069 メヌエット I/II
TTITLE9=第4番 ニ長調 BWV1069  レジュイサンス
TTITLE10=オーボエ・ダモーレ協奏曲 イ長調 BWV1055による 第1楽章 アレグロ
TTITLE11=オーボエ・ダモーレ協奏曲 イ長調 BWV1055による 第2楽章 ラルゲット
TTITLE12=オーボエ・ダモーレ協奏曲 イ長調 BWV1055による 第3楽章 アレグロ・マ・ノン・タント
EXTD=YEAR: 1961
EXTT0=
EXTT1=
EXTT2=
EXTT3=
EXTT4=
EXTT5=
EXTT6=
EXTT7=
EXTT8=
EXTT9=
EXTT10=
EXTT11=
EXTT12=
PLAYORDER=
